PathFileType	4	(X/Y/Z)	Kaydara	
DataRate	CameraRate	NumFrames	NumMarkers	Units	OrigDataRate	OrigDataStartFrame	OrigNumFrames	
240.00	240.00	4	72	mm	240.00	267	355	
Frame#	Time	Hips			RightUpLeg			RightLeg			RightFoot			RightFoot_End			LeftUpLeg			LeftLeg			LeftFoot			LeftFoot_End			Spine			Spine1			Spine2			Spine3			Neck			Head			Head_End			RightShoulder			RightArm			RightForeArm			RightHand			RightHandThumb1			RightHandThumb2			RightHandThumb3			RightHandThumb3_End			RightInHandIndex			RightHandIndex1			RightHandIndex2			RightHandIndex3			RightHandIndex3_End			RightInHandMiddle			RightHandMiddle1			RightHandMiddle2			RightHandMiddle3			RightHandMiddle3_End			RightInHandRing			RightHandRing1			RightHandRing2			RightHandRing3			RightHandRing3_End			RightInHandPinky			RightHandPinky1			RightHandPinky2			RightHandPinky3			RightHandPinky3_End			LeftShoulder			LeftArm			LeftForeArm			LeftHand			LeftHandThumb1			LeftHandThumb2			LeftHandThumb3			LeftHandThumb3_End			LeftInHandIndex			LeftHandIndex1			LeftHandIndex2			LeftHandIndex3			LeftHandIndex3_End			LeftInHandMiddle			LeftHandMiddle1			LeftHandMiddle2			LeftHandMiddle3			LeftHandMiddle3_End			LeftInHandRing			LeftHandRing1			LeftHandRing2			LeftHandRing3			LeftHandRing3_End			LeftInHandPinky			LeftHandPinky1			LeftHandPinky2			LeftHandPinky3			LeftHandPinky3_End			
		X1	Y1	Z1	X2	Y2	Z2	X3	Y3	Z3	X4	Y4	Z4	X5	Y5	Z5	X6	Y6	Z6	X7	Y7	Z7	X8	Y8	Z8	X9	Y9	Z9	X10	Y10	Z10	X11	Y11	Z11	X12	Y12	Z12	X13	Y13	Z13	X14	Y14	Z14	X15	Y15	Z15	X16	Y16	Z16	X17	Y17	Z17	X18	Y18	Z18	X19	Y19	Z19	X20	Y20	Z20	X21	Y21	Z21	X22	Y22	Z22	X23	Y23	Z23	X24	Y24	Z24	X25	Y25	Z25	X26	Y26	Z26	X27	Y27	Z27	X28	Y28	Z28	X29	Y29	Z29	X30	Y30	Z30	X31	Y31	Z31	X32	Y32	Z32	X33	Y33	Z33	X34	Y34	Z34	X35	Y35	Z35	X36	Y36	Z36	X37	Y37	Z37	X38	Y38	Z38	X39	Y39	Z39	X40	Y40	Z40	X41	Y41	Z41	X42	Y42	Z42	X43	Y43	Z43	X44	Y44	Z44	X45	Y45	Z45	X46	Y46	Z46	X47	Y47	Z47	X48	Y48	Z48	X49	Y49	Z49	X50	Y50	Z50	X51	Y51	Z51	X52	Y52	Z52	X53	Y53	Z53	X54	Y54	Z54	X55	Y55	Z55	X56	Y56	Z56	X57	Y57	Z57	X58	Y58	Z58	X59	Y59	Z59	X60	Y60	Z60	X61	Y61	Z61	X62	Y62	Z62	X63	Y63	Z63	X64	Y64	Z64	X65	Y65	Z65	X66	Y66	Z66	X67	Y67	Z67	X68	Y68	Z68	X69	Y69	Z69	X70	Y70	Z70	X71	Y71	Z71	X72	Y72	Z72	

267	1.108	5921.0129	906.651	56.2195	5923.566070231697	859.9304666350962	-21.444872314094308	5850.483202048979	450.74210259471175	-70.08684523164669	5945.19264535937	93.754231002257	-189.2595233672597	5870.7063026807355	13.087269919703758	-32.80968592303168	5924.180884741783	924.2730516349136	145.90580813885842	5877.563394156676	524.2321676647288	260.8391094937913	5780.167355298115	95.26847033683552	293.6021813536883	5663.869295373532	2.886198604864452	173.45643223658334	5894.900106331015	1037.608512512918	4.892357494952039	5844.847473730352	1109.7142282851325	-36.65166582927502	5786.253057946848	1179.7954561975102	-79.75678030309348	5720.716231765064	1238.558792880099	-120.27375261405908	5649.973241439302	1300.9428284915073	-162.86744749778023	5584.796443932047	1357.9232803948105	-200.36024281461502	5459.696558502711	1449.9717119241852	-235.71187319739022	5669.581114855441	1261.0603842055111	-170.20291399255868	5628.671817566764	1175.6606974829258	-221.06721537852712	5591.272481088743	996.3129168081864	-50.786913850992164	5538.892209025259	801.4077606431246	55.65083165847017	5529.388546991477	791.0292870902164	71.21143751090221	5533.431799528403	777.2632482703557	92.14306834885399	5537.812750669641	765.4972356325986	106.5661351224012	5542.803974344649	753.8240506844683	118.45851606955333	5533.127366295302	781.6395649852594	71.76654234442266	5534.454620362254	746.0521545085223	97.21860276521296	5540.72068860696	724.6261409846848	116.64806542687117	5546.170760125997	717.67528082178	127.82023309500292	5551.730314238884	716.2186062125551	136.45555387438094	5537.5922781651725	777.1094780529914	70.54419023705586	5541.300390927667	739.9473117386733	94.70770272140798	5548.729420338866	716.0891373656622	115.66741150961859	5555.588580821546	707.4737599398363	129.03023336455027	5561.809732138305	705.7683695243813	138.42244967391403	5540.669118626025	774.7618720858576	69.01772270129064	5546.535243896629	739.257654200262	89.30883109183708	5553.6096307094795	718.0332602535354	107.29241604953307	5560.5440557388165	709.4949592195596	120.03057981042915	5566.544306203323	707.7833864210374	128.78991007542572	5544.521546416493	773.5222564255398	66.62640156273092	5552.130551523555	739.9969455473165	83.72637243565808	5558.705045671265	722.4863756211065	97.59398047555227	5564.203043392095	716.0094479701555	106.62742816102151	5569.771511774329	714.3499399341803	114.23839278083119	5678.242096625056	1300.5909476786132	-126.5981193581254	5713.82614107671	1345.7815585315434	-24.47820457236888	5703.959265054485	1099.7650583911854	5.994648325154714	5668.268553328356	869.6487898924739	18.047223205073045	5664.727457746699	857.8872741702845	40.697390187151335	5650.925170134319	839.8550191467573	50.63122563372858	5642.078533628456	825.0879770237161	55.034485252364135	5635.358152503804	810.8872685570582	56.55405739787888	5668.407977718264	848.522491852887	34.57529537554636	5665.993000873762	809.6240775091212	46.98146311822959	5657.570897101438	784.5077740122051	51.26588681732861	5648.198451987311	774.7831838866337	52.62805487923343	5637.650731867722	770.7072739570617	52.87764743199649	5670.253034624085	843.9600691516389	27.097282573069556	5668.897454279193	803.5513524988173	35.15426661196469	5659.950129041774	775.6710767856665	38.79704271828386	5648.75915015269	763.7115724414748	39.9450357417202	5637.274681202432	759.1413680355608	39.97729545502745	5671.691169797736	841.6873280717167	21.527670246751526	5671.938212068261	803.3772161563763	24.00183956715223	5664.389250979626	778.6569623460869	26.108668033121802	5653.727184662224	766.8981978926233	26.648703465508284	5642.9916862759055	762.4954467519691	26.410206896849665	5672.843790242115	840.5257793689913	14.511141419068636	5674.025050488119	804.5183410430603	12.560080946259774	5668.367847842588	784.2358686441324	12.569579045025392	5660.778447679247	775.4232003706715	12.151985006506102	5651.376482116112	771.3873902198922	11.473689104857549
268	1.113	5921.0129	906.651	56.2195	5923.250367489583	859.8690646501891	-21.252307570219326	5850.476049516851	450.621327970965	-69.83468825428257	5945.310202653048	93.76308585229981	-189.182917847461	5870.844961615877	13.15958080649424	-32.690253923845376	5924.450590055084	924.3355229769519	145.7400554310328	5877.998227596404	524.3580119443216	260.9765053490166	5780.551268364261	95.453208544391	293.94702528403855	5664.392524896027	2.981194707704846	173.74035386357443	5895.114887370161	1037.6071316268356	4.768725348248099	5845.091491629137	1109.771013687318	-36.71206945241717	5786.523949329557	1179.9430786729654	-79.70791042196699	5721.017513400378	1238.8604169106607	-120.05104225126878	5650.30645480997	1301.40930180563	-162.45680009600648	5585.170992878542	1358.5523734731885	-199.77630896034813	5460.15541707782	1450.7726568426565	-234.99424374829155	5669.634661632875	1261.401305122618	-169.65457246823587	5627.051736495559	1175.1153324056575	-218.6956337340344	5592.5196798475	997.6457552705647	-46.053588701953274	5541.4016027587	804.2981392665899	63.87582971877778	5532.686945300739	794.590344717601	81.02804739652225	5538.0819793964965	781.0335211243598	102.35965964233495	5543.3419871781925	769.3472617203327	116.91047786176574	5549.01272550734	757.6841500627093	128.78035803833242	5536.2090766574765	785.0616378749307	81.28569265620763	5538.464243247682	749.8868410913954	107.73582945329234	5545.726786045737	728.5563449545449	127.34132844832953	5551.967652544269	721.5813866180233	138.3837068134783	5558.297285888348	720.048455401814	146.75023226461775	5540.488850979564	780.3287238658056	79.59381562292621	5545.001780652003	743.4593541035638	104.477003448991	5553.491161761203	719.677067836828	125.56296501991466	5561.291431239888	711.0190170056501	138.73760651771036	5568.34889028433	709.2235765206094	147.8203526767919	5543.407428773578	777.8288881130326	77.71463743615142	5549.84637574682	742.4595995771463	98.35764138566934	5557.816145479022	721.2719041775649	116.38279204760337	5565.643038181462	712.6768036838916	128.90307532841783	5572.422375446774	710.8731507267252	137.354192462501	5547.0803778054205	776.3892869659446	74.8526068734244	5555.0917254882215	742.8699331872134	92.00049190797927	5562.335771220894	725.3422111670668	105.79298507847868	5568.461791260938	718.8013412727657	114.6150734806532	5574.7071974573	717.0473090011868	121.92283364965952	5678.843689700961	1301.0697338156099	-126.46601330389394	5715.554223591011	1347.045990564287	-25.393872958511363	5707.577338339462	1101.477559304071	7.868077688773951	5670.788253126021	872.3687705726405	20.865485140940628	5668.864504575983	861.1770582530136	43.95652262432847	5655.674641162153	843.4923759568726	55.00062255791225	5647.094109306142	828.9245347096714	60.15829133189959	5640.45836056949	814.8532351650475	62.29071652240846	5672.1934262532	851.7287546059069	37.74024691322352	5670.793327435998	813.3374900942316	50.89815848471841	5662.677081356587	788.4790244322078	56.06527152699581	5653.326908139208	778.8580888094375	58.130529434891194	5642.684382229966	774.8297661518723	59.06616421880275	5673.547899515928	847.0276184700505	30.20208252643014	5672.916957954993	807.0385575237444	38.959656505934916	5664.234860974967	779.4195673949794	43.55569601329708	5653.037869307567	767.5754888141335	45.54717802663606	5641.4336798814	763.0526721294605	46.327777044205966	5674.616758403114	844.6447210222818	24.56716585384359	5675.20208145412	806.6173814088081	27.60191163557206	5667.813078714391	782.1036847650724	30.52839842820505	5657.107392669751	770.4450096008593	31.876093420758863	5646.24140461195	766.0814845426257	32.338403667668516	5675.289006732552	843.3353240087808	17.48214004246703	5676.495517882998	807.4988971578472	15.99109125526131	5670.853800639003	787.3475454365267	16.637035401640304	5663.178114029454	778.5912990516782	16.798922449826662	5653.629207705172	774.5806927181118	16.73588564386676
269	1.117	5921.0129	906.651	56.2195	5922.9484124568235	859.8129821383247	-21.056821480304784	5850.485048298217	450.506523062438	-69.5843859595292	5945.443632199043	93.77649277617988	-189.1061305679131	5871.003254059757	13.237413910106449	-32.568365773418414	5924.708034545124	924.3932324808565	145.57174675216794	5878.409601069846	524.4780398085202	261.100558258108	5780.927549842964	95.62875505204481	294.28380390969096	5664.904016941078	3.071289055511588	174.01736669979783	5895.3226786669975	1037.6030657784622	4.643309661555729	5845.327521687589	1109.8248183210462	-36.77323300404709	5786.786299968734	1180.0874263490432	-79.65874425331972	5721.310558862306	1239.158023958191	-119.82759699720705	5650.631995308133	1301.8710458296343	-162.04517740265482	5585.538810286929	1359.1763880256822	-199.19135589823952	5460.609855838752	1451.5700016851304	-234.2774211588481	5669.688032814808	1261.745462568519	-169.1048593168783	5625.48318208107	1174.6328906878364	-216.34347814485173	5593.885224480057	999.0893328060378	-41.435530984620144	5544.002091751937	807.5104049824043	71.86040349338658	5536.113427359023	798.5323104673073	90.55965088678576	5542.847955350902	785.2067269233867	112.24754160284567	5548.971730569547	773.6122489094166	126.89915950650955	5555.303478487243	761.9664063294684	138.72704999022113	5539.4014409005285	788.8618508412294	90.52857809907513	5542.575108270532	754.1574139863994	117.93343453981909	5550.809899825469	732.9429528575356	137.68294777705893	5557.823011857864	725.9440716361611	148.57514034791467	5564.905018110365	724.326542951486	156.6556588763532	5543.477254921425	783.9141625127335	88.37807038639365	5548.775645377877	747.3874565799266	113.94453793791783	5558.29646785165	723.7016589406138	135.12338561654667	5567.014279331543	715.0002879961498	148.08599531690874	5574.888094754798	713.1052538214235	156.84080633549803	5546.224645550351	781.2523722090829	86.15501766064827	5553.20823875687	746.0548168792611	107.12506614255953	5562.045692202847	724.9198670165982	125.1643676119663	5570.740992244304	716.266329714829	137.44464940051188	5578.280027649029	714.3611428740319	145.57061132658453	5549.702439824386	779.5984109865939	82.83345847736807	5558.081068784556	746.1105634308651	100.01345386968123	5565.9687058793725	728.5753997785785	113.71158913720235	5572.703370142938	721.967874727772	122.30749392350444	5579.607486706043	720.1100697729999	129.29779610688976	5679.429229844927	1301.5360571225053	-126.33325234604334	5717.240168390018	1348.2616380505372	-26.323256301848506	5711.245924560795	1103.1831881730532	9.640756015314864	5673.257656303946	875.183823136979	23.560772189478897	5672.955455359001	864.6169935700398	47.04206550979002	5660.412011407363	847.3022552160248	59.18382449672702	5652.121745698448	832.9453697261196	65.0948156879808	5645.591188517927	819.0100069365019	67.84576800892484	5675.932107968602	855.0794981593586	40.752479290339224	5675.566227909103	817.2437779613166	54.65412164936667	5667.78426903361	792.6608797449086	60.70934305898966	5658.480361905057	783.1452272408128	63.48145138828291	5647.767152949134	779.1595033880493	65.10650515324014	5676.7973610506615	850.2268042956698	33.175885014793046	5676.910655864285	810.6976586373409	42.63797939172264	5668.52494526111	783.3574289634649	48.19610139417974	5657.350954143917	771.6298428162588	51.03700382454095	5645.6534706030625	767.1485189173451	52.57031480999092	5677.4972684169215	847.7235876015311	27.491151898017606	5678.438293361137	810.0067076246025	31.103257024401444	5671.236516093107	785.7128211946433	34.860053479735235	5660.515254197164	774.1542136978999	37.022703727786585	5649.543651494239	769.8238741740258	38.19067825188001	5677.690100672298	846.2520723695113	20.35620786858351	5678.937950452645	810.6037617357377	19.351803824160363	5673.333649187198	790.5909353478635	20.64727557135462	5665.592177930038	781.8895433136753	21.396167345966575	5655.918392819738	777.8978967869396	21.953959905338593
270	1.121	5921.0129	906.651	56.2195	5922.659440059333	859.7618659351497	-20.859085844976892	5850.509401764297	450.3972331181519	-69.33599045212101	5945.5931070884535	93.79428294836079	-189.02979197877687	5871.181342487088	13.320261035119142	-32.44483338649944	5924.954031771162	924.4465091521005	145.4014789758612	5878.798446092751	524.5925211716432	261.2117631289868	5781.296054372155	95.79543331650265	294.6119208903452	5665.403589316325	3.1567333442177654	174.28692456781948	5895.523281797741	1037.5964330632944	4.516468748620917	5845.555281309933	1109.875742977837	-36.83473419028537	5787.039711261039	1180.2285156979763	-79.60884728135703	5721.594783435279	1239.4513945878148	-119.60303871932862	5650.949068543726	1302.327574765125	-161.6322604817265	5585.898884852128	1359.7945683646903	-198.60511100361543	5461.058386086137	1452.3624091997567	-233.5609311498958	5669.740666147859	1262.0922714207268	-168.55388714924567	5623.968061914711	1174.213651205104	-214.01423352965057	5595.36402946189	1000.642619303735	-36.93649394998606	5546.685320437665	811.0395124115215	79.60208630293639	5539.6571217117325	802.8472571407865	99.79939169669875	5547.715231176052	789.7737403227218	121.80010806170006	5554.685215962159	778.2825478997613	136.52638659924145	5561.657795789292	766.6609989530567	148.29402223571716	5542.6944325857785	793.033011354723	99.48990212575403	5546.774892565531	758.8550432837151	127.80557906931952	5555.955256900004	737.7766029202681	147.6684509145691	5563.720043998596	730.7538511317873	158.39138991612793	5571.534708292815	729.04342242548	166.1701129342308	5546.548198220573	787.8595316633448	96.89349644921488	5552.6108510955655	751.7242627569709	123.10731299289063	5563.131634287966	728.1551027052458	144.34741770030263	5572.741032065204	719.4096783907363	157.07586550890613	5581.409078910255	717.4055788717181	165.48589093372163	5549.112064696708	785.0267565463703	94.33670437458623	5556.61101652002	750.0373475769418	115.61045077299644	5566.286322580883	728.9709300871183	133.6382540346807	5575.823723093885	720.2573060042055	145.65820719521838	5584.101051515398	718.2412327990055	153.44365317186953	5552.3796941598575	783.1449437299857	90.56841781066686	5561.089965961656	749.7143220668661	107.76705263592986	5569.593700948108	732.1814288224396	121.35338675097272	5576.916076826603	725.5046280291274	129.7097786412014	5584.458938463141	723.5339500644255	136.36987749619874	5679.9978328693805	1301.9897276789068	-126.199025538701	5718.882136996595	1349.4282366657608	-27.263023015815314	5714.957390938099	1104.87981419671	11.31384275039413	5675.671113880882	878.0884877963947	26.141560779904218	5676.990370645653	868.1995146919219	49.96169355297061	5665.126273456837	851.276070015193	63.185461879652756	5657.150310162803	837.141355344157	69.84647695733119	5650.745928419205	823.3481538658456	73.21970812414969	5679.615720344641	858.5674908167354	43.61944702579701	5680.302446598775	821.3340188108782	58.254115467090074	5672.883537759617	797.0437112044895	65.20001744561286	5663.650215332533	787.6347806988026	68.68071604995637	5652.890793647725	783.6866784083945	70.99672378718618	5679.994879476573	853.5509426748953	36.02594240126011	5680.87203175566	814.5206190626553	46.19375319509348	5672.8144662980785	787.4759321854041	52.719651177826066	5661.692994157618	775.8657138283829	56.41345833194441	5649.929078445178	771.4200183384829	58.701834260761	5680.327423540304	850.9176699898361	30.30681535737576	5681.642670986064	813.5380828315341	34.510580955755245	5674.656152039808	789.4767383039725	39.105598747286564	5663.947973997199	778.0180359964081	42.088131340986465	5652.896102183443	773.7148908916865	43.964724719829405	5680.043328939036	849.2703381675806	23.14046555639686	5681.350537388915	813.8268034920601	22.647050670119327	5675.806568953939	793.959621685686	24.60292452965208	5668.020444521319	785.3114776129257	25.9446106041341	5658.244363265149	781.332627441602	27.127113472062483
